<svg width="200" height="60" viewBox="0 0 200 60" fill="none" xmlns="http://www.w3.org/2000/svg">
  <path d="M40 10H20C14.4772 10 10 14.4772 10 20V40C10 45.5228 14.4772 50 20 50H40C45.5228 50 50 45.5228 50 40V20C50 14.4772 45.5228 10 40 10Z" fill="#FF6B57"/>
  <path d="M35 25H25C22.2386 25 20 27.2386 20 30V35C20 37.7614 22.2386 40 25 40H35C37.7614 40 40 37.7614 40 35V30C40 27.2386 37.7614 25 35 25Z" fill="white"/>
  <path d="M30 20L25 30H35L30 40" stroke="white" stroke-width="2" stroke-linecap="round" stroke-linejoin="round"/>
  <path d="M65 25H75C77.7614 25 80 27.2386 80 30C80 32.7614 77.7614 35 75 35H65V25Z" fill="#FF6B57"/>
  <path d="M65 20V40H60V20H65Z" fill="#2A2D45"/>
  <path d="M90 20V40H85V20H90Z" fill="#2A2D45"/>
  <path d="M105 20V35C105 37.7614 102.761 40 100 40H95V35H100V20H105Z" fill="#2A2D45"/>
  <path d="M115 20V40H110V20H115Z" fill="#2A2D45"/>
  <path d="M135 20V40H130V30H125V40H120V20H125V25H130V20H135Z" fill="#2A2D45"/>
  <path d="M145 20V35H150V20H155V35C155 37.7614 152.761 40 150 40H145C142.239 40 140 37.7614 140 35V20H145Z" fill="#2A2D45"/>
  <path d="M170 20H160V40H165V35H170C172.761 35 175 32.7614 175 30V25C175 22.2386 172.761 20 170 20Z" fill="#2A2D45"/>
  <path d="M170 25H165V30H170V25Z" fill="white"/>
  <path d="M180 20V40H185V35H190C192.761 35 195 32.7614 195 30V25C195 22.2386 192.761 20 190 20H180Z" fill="#2A2D45"/>
  <path d="M185 25H190V30H185V25Z" fill="white"/>
</svg> 